<svg preserveAspectRatio="none" width="100%" height="100%" overflow="visible" style="display: block;" viewBox="0 0 48 48" fill="none" xmlns="http://www.w3.org/2000/svg">
<g id="Group 7">
<path id="Vector" d="M24.0029 0C17.1772 0 11.0161 2.84922 6.64517 7.42461C2.52917 11.7329 0 17.572 0 24C0 30.8157 2.84428 36.9708 7.40712 41.3394C11.7179 45.4639 17.5639 48 24 48C29.1873 48 33.9878 46.3542 37.9119 43.5596C43.5861 39.5184 47.4243 33.0704 47.9399 25.7032C47.98 25.1403 48 24.5716 48 24C48 10.7448 37.2531 0 23.9971 0H24.0029Z" fill="#A5B4DF"/>
<g id="Group">
<g id="Group_2">
<path id="Vector_2" d="M37.9932 20.2948C37.9932 20.2766 38.044 20.2624 38.1062 20.2624C38.1683 20.2624 38.2192 20.2771 38.2192 20.2948C38.2192 20.3124 38.1683 20.3271 38.1062 20.3271C38.044 20.3271 37.9932 20.3124 37.9932 20.2948Z" fill="#1F1F1F"/>
<path id="Vector_3" d="M14.9862 20.3273C16.9251 20.3273 18.4968 18.7492 18.4968 16.8025C18.4968 14.8559 16.9251 13.2778 14.9862 13.2778C13.0473 13.2778 11.4756 14.8559 11.4756 16.8025C11.4756 18.7492 13.0473 20.3273 14.9862 20.3273Z" fill="#1F1F1F"/>
<path id="Vector_4" d="M40.039 20.3273C41.9779 20.3273 43.5497 18.7492 43.5497 16.8026C43.5497 14.8559 41.9779 13.2778 40.039 13.2778C38.1002 13.2778 36.5284 14.8559 36.5284 16.8026C36.5284 18.7492 38.1002 20.3273 40.039 20.3273Z" fill="#1F1F1F"/>
</g>
<path id="Vector_5" d="M24.0124 24.3275C26.1564 24.4465 28.3004 24.5656 30.4441 24.6846C31.0467 24.7183 31.6493 24.7514 32.2518 24.785C32.4218 24.7944 32.5807 24.56 32.6423 24.2043C32.6904 23.9274 32.6524 23.482 32.4831 23.4727C30.3391 23.3536 28.1952 23.2346 26.0514 23.1155C25.4488 23.0819 24.8463 23.0488 24.2437 23.0152C24.0738 23.0058 23.9148 23.2402 23.8532 23.5959C23.8052 23.8728 23.8431 24.3182 24.0124 24.3275Z" fill="#1F1F1F"/>
</g>
</g>
</svg>
